<svg id="visual" viewBox="0 0 1920 1080" width="1920" height="1080" xmlns="http://www.w3.org/2000/svg" xmlns:xlink="http://www.w3.org/1999/xlink" version="1.1"><rect x="0" y="0" width="1920" height="1080" fill="#1e293b"></rect><path d="M1282 1080L1263.2 1054.3C1244.3 1028.7 1206.7 977.3 1184.8 925.8C1163 874.3 1157 822.7 1147.7 771.2C1138.3 719.7 1125.7 668.3 1183.8 617C1242 565.7 1371 514.3 1381 463C1391 411.7 1282 360.3 1284.8 308.8C1287.7 257.3 1402.3 205.7 1447 154.2C1491.7 102.7 1466.3 51.3 1453.7 25.7L1441 0L1920 0L1920 25.7C1920 51.3 1920 102.7 1920 154.2C1920 205.7 1920 257.3 1920 308.8C1920 360.3 1920 411.7 1920 463C1920 514.3 1920 565.7 1920 617C1920 668.3 1920 719.7 1920 771.2C1920 822.7 1920 874.3 1920 925.8C1920 977.3 1920 1028.7 1920 1054.3L1920 1080Z" fill="#0066FF" stroke-linecap="round" stroke-linejoin="miter"></path></svg>