<svg id="visual" viewBox="0 0 1920 1080" width="1920" height="1080" xmlns="http://www.w3.org/2000/svg" xmlns:xlink="http://www.w3.org/1999/xlink" version="1.1"><rect x="0" y="0" width="1920" height="1080" fill="#1e293b"></rect><path d="M466 0L468.3 36C470.7 72 475.3 144 444.7 216C414 288 348 360 348 432C348 504 414 576 447.7 648C481.3 720 482.7 792 449.7 864C416.7 936 349.3 1008 315.7 1044L282 1080L0 1080L0 1044C0 1008 0 936 0 864C0 792 0 720 0 648C0 576 0 504 0 432C0 360 0 288 0 216C0 144 0 72 0 36L0 0Z" fill="#0066FF" stroke-linecap="round" stroke-linejoin="miter"></path></svg>